<?xml version="1.0" encoding="UTF-8"?>
<svg width="140px" height="70px" viewBox="0 0 140 70" version="1.1" xmlns="http://www.w3.org/2000/svg" xmlns:xlink="http://www.w3.org/1999/xlink">
    <title>logo_beyaz</title>
    <g id="exxen_landing" stroke="none" stroke-width="1" fill="none" fill-rule="evenodd">
        <g id="Deskrop-Üye-girişi" transform="translate(-78.000000, -780.000000)">
            <g id="logo_beyaz" transform="translate(78.000000, 780.000000)">
                <path d="M139.5,0.5 L139.5,69.5 L0.5,69.5 L0.5,0.5 L139.5,0.5 Z" id="Fill-1" stroke="#FFFFFF" fill="#000000"></path>
                <g id="exxen" transform="translate(11.375000, 14.000000)" fill="#FFFFFF">
                    <polygon id="Fill-2" points="2.34701147e-13 0 18.2110856 0 18.2110856 8.40508329 10.9217404 8.40508329 10.9217404 16.3694716 17.7441126 16.3694716 17.7441126 24.3592763 10.9217404 24.3592763 10.9217404 33.5949167 18.9378231 33.5949167 18.9378231 42 2.34701147e-13 42"></polygon>
                    <path d="M44.0957496,0 L40.256146,18.5742389 L46.0411833,42 L35.9237221,42 C34.7145032,37.8127513 33.6073809,32.710942 32.6032166,26.6945721 C32.3288054,29.3594199 31.9445434,32.1784894 31.4512924,35.1517806 L30.4242965,42 L19.787737,42 L23.7570075,18.5742389 L19.787737,0 L30.346324,0 C30.538455,1.15666284 30.9175475,3.08400345 31.484463,5.7828834 C31.9419587,7.83946008 32.3150202,9.73406088 32.6032166,11.466255 L34.9380816,0 L44.0957496,0 Z" id="Fill-3"></path>
                    <path d="M69.5680807,0 L65.7289078,18.5742389 L71.514376,42 L61.3964839,42 C60.1876959,37.8127513 59.0801428,32.710942 58.0764093,26.6945721 C57.8015672,29.3594199 57.4177361,32.1784894 56.9244851,35.1517806 L55.8974891,42 L45.2609297,42 L49.2297694,18.5742389 L45.2609297,0 L55.8190859,0 C56.0107861,1.15666284 56.3903093,3.08400345 56.9576557,5.7828834 C57.4151514,7.83946008 57.787782,9.73406088 58.0764093,11.466255 L60.4104127,0 L69.5680807,0 Z" id="Fill-5"></path>
                    <polygon id="Fill-7" points="72.0946911 0 90.3057767 0 90.3057767 8.40508329 83.0164315 8.40508329 83.0164315 16.3694716 89.8388037 16.3694716 89.8388037 24.3592763 83.0164315 24.3592763 83.0164315 33.5949167 91.0325142 33.5949167 91.0325142 42 72.0946911 42"></polygon>
                    <polygon id="Fill-9" points="117.364518 0 117.364518 42 107.792002 42 102.110785 22.9066628 102.110785 42 92.9793945 42 92.9793945 0 102.110785 0 108.233128 18.9115451 108.233128 0"></polygon>
                </g>
                <polygon id="Fill-11" fill="#000000" points="87.5252599 38.181896 94.2897859 38.181896 94.2897859 30.2292966 87.5252599 30.2292966"></polygon>
            </g>
        </g>
    </g>
</svg>